<svg width="26" height="26" viewBox="0 0 26 26" fill="none" xmlns="http://www.w3.org/2000/svg">
<path d="M13 2.16663C7.02002 2.16663 2.16669 7.01996 2.16669 13C2.16669 18.98 7.02002 23.8333 13 23.8333C18.98 23.8333 23.8334 18.98 23.8334 13C23.8334 7.01996 18.98 2.16663 13 2.16663ZM7.65919 19.8033C8.12502 18.8283 10.9634 17.875 13 17.875C15.0367 17.875 17.8859 18.8283 18.3409 19.8033C16.8675 20.9733 15.015 21.6666 13 21.6666C10.985 21.6666 9.13252 20.9733 7.65919 19.8033ZM19.89 18.2325C18.3409 16.3475 14.5817 15.7083 13 15.7083C11.4184 15.7083 7.65919 16.3475 6.11002 18.2325C5.00502 16.7808 4.33335 14.9716 4.33335 13C4.33335 8.22246 8.22252 4.33329 13 4.33329C17.7775 4.33329 21.6667 8.22246 21.6667 13C21.6667 14.9716 20.995 16.7808 19.89 18.2325ZM13 6.49996C10.8984 6.49996 9.20835 8.18996 9.20835 10.2916C9.20835 12.3933 10.8984 14.0833 13 14.0833C15.1017 14.0833 16.7917 12.3933 16.7917 10.2916C16.7917 8.18996 15.1017 6.49996 13 6.49996ZM13 11.9166C12.1009 11.9166 11.375 11.1908 11.375 10.2916C11.375 9.39246 12.1009 8.66663 13 8.66663C13.8992 8.66663 14.625 9.39246 14.625 10.2916C14.625 11.1908 13.8992 11.9166 13 11.9166Z" fill="black"/>
</svg>
