<svg width="40" height="40" viewBox="0 0 40 40" fill="none" xmlns="http://www.w3.org/2000/svg">
<path d="M5 6.66663V1.66663H8.33333V6.66663H13.3333V9.99996H8.33333V15H5V9.99996H0V6.66663H5ZM10 16.6666V11.6666H15V6.66663H26.6667L29.7167 9.99996H35C36.8333 9.99996 38.3333 11.5 38.3333 13.3333V33.3333C38.3333 35.1666 36.8333 36.6666 35 36.6666H8.33333C6.5 36.6666 5 35.1666 5 33.3333V16.6666H10ZM21.6667 31.6666C26.2667 31.6666 30 27.9333 30 23.3333C30 18.7333 26.2667 15 21.6667 15C17.0667 15 13.3333 18.7333 13.3333 23.3333C13.3333 27.9333 17.0667 31.6666 21.6667 31.6666ZM16.3333 23.3333C16.3333 26.2833 18.7167 28.6666 21.6667 28.6666C24.6167 28.6666 27 26.2833 27 23.3333C27 20.3833 24.6167 18 21.6667 18C18.7167 18 16.3333 20.3833 16.3333 23.3333Z" fill="white"/>
</svg>
