<svg width="26" height="26" viewBox="0 0 26 26" fill="none" xmlns="http://www.w3.org/2000/svg">
	<path d="M15.1571 4.3333C15.8003 4.33137 16.4296 4.52033 16.9653 4.87627C17.5011 5.23221 17.9191 5.73912 18.1666 6.3328C18.4141 6.92649 18.4799 7.58026 18.3556 8.21134C18.2313 8.84242 17.9225 9.42243 17.4684 9.87792C17.0142 10.3334 16.4352 10.6439 15.8045 10.7701C15.1738 10.8963 14.5198 10.8325 13.9254 10.5868C13.3309 10.3411 12.8228 9.92458 12.4652 9.38991C12.1077 8.85524 11.9168 8.2265 11.9168 7.5833C11.9168 6.72322 12.2577 5.8982 12.8649 5.28902C13.472 4.67984 14.2959 4.33616 15.156 4.3333H15.1571ZM15.156 2.16663C14.0847 2.16663 13.0374 2.48431 12.1466 3.0795C11.2559 3.67469 10.5616 4.52066 10.1516 5.51043C9.74167 6.50019 9.6344 7.58931 9.8434 8.64004C10.0524 9.69077 10.5683 10.6559 11.3258 11.4135C12.0834 12.171 13.0485 12.6869 14.0992 12.8959C15.15 13.1049 16.2391 12.9976 17.2289 12.5876C18.2186 12.1777 19.0646 11.4834 19.6598 10.5926C20.255 9.70187 20.5727 8.65461 20.5727 7.5833C20.5735 6.87173 20.434 6.16698 20.1621 5.50942C19.8902 4.85185 19.4912 4.25438 18.9881 3.75123C18.4849 3.24807 17.8874 2.84912 17.2299 2.57721C16.5723 2.3053 15.8676 2.16577 15.156 2.16663Z" fill="#FFFFFF" />
	<path d="M21.6667 17.3333V21.6666H17.3334V17.3333H21.6667ZM23.8334 15.1666H15.1667V23.8333H23.8334V15.1666Z" fill="#FFFFFF" />
	<path d="M7.58335 14.2112L9.31669 17.3333H5.85002L7.58335 14.2112ZM7.58335 9.75L2.16669 19.5H13L7.58335 9.75Z" fill="#FFFFFF" />
</svg>
