<svg width="26" height="26" viewBox="0 0 26 26" fill="none" xmlns="http://www.w3.org/2000/svg">
<path d="M4.33333 14.0833C5.525 14.0833 6.5 13.1083 6.5 11.9167C6.5 10.725 5.525 9.75 4.33333 9.75C3.14167 9.75 2.16667 10.725 2.16667 11.9167C2.16667 13.1083 3.14167 14.0833 4.33333 14.0833ZM5.5575 15.275C5.15667 15.21 4.75583 15.1667 4.33333 15.1667C3.26083 15.1667 2.2425 15.3942 1.32167 15.795C0.52 16.1417 0 16.9217 0 17.7992V19.5H4.875V17.7558C4.875 16.8567 5.12417 16.0117 5.5575 15.275ZM21.6667 14.0833C22.8583 14.0833 23.8333 13.1083 23.8333 11.9167C23.8333 10.725 22.8583 9.75 21.6667 9.75C20.475 9.75 19.5 10.725 19.5 11.9167C19.5 13.1083 20.475 14.0833 21.6667 14.0833ZM26 17.7992C26 16.9217 25.48 16.1417 24.6783 15.795C23.7575 15.3942 22.7392 15.1667 21.6667 15.1667C21.2442 15.1667 20.8433 15.21 20.4425 15.275C20.8758 16.0117 21.125 16.8567 21.125 17.7558V19.5H26V17.7992ZM17.5933 14.7875C16.3258 14.2242 14.7658 13.8125 13 13.8125C11.2342 13.8125 9.67417 14.235 8.40667 14.7875C7.23667 15.3075 6.5 16.4775 6.5 17.7558V19.5H19.5V17.7558C19.5 16.4775 18.7633 15.3075 17.5933 14.7875ZM8.7425 17.3333C8.84 17.0842 8.88333 16.9108 9.72833 16.5858C10.7792 16.1742 11.8842 15.9792 13 15.9792C14.1158 15.9792 15.2208 16.1742 16.2717 16.5858C17.1058 16.9108 17.1492 17.0842 17.2575 17.3333H8.7425ZM13 8.66667C13.5958 8.66667 14.0833 9.15417 14.0833 9.75C14.0833 10.3458 13.5958 10.8333 13 10.8333C12.4042 10.8333 11.9167 10.3458 11.9167 9.75C11.9167 9.15417 12.4042 8.66667 13 8.66667ZM13 6.5C11.2017 6.5 9.75 7.95167 9.75 9.75C9.75 11.5483 11.2017 13 13 13C14.7983 13 16.25 11.5483 16.25 9.75C16.25 7.95167 14.7983 6.5 13 6.5Z" fill="black"/>
</svg>
