<svg width="20" height="20" viewBox="0 0 20 20" fill="none" xmlns="http://www.w3.org/2000/svg">
<g clip-path="url(#clip0)">
<path d="M12.4999 10.8335C12.0391 10.8335 11.6666 11.2069 11.6666 11.6668V15.0002C11.6666 15.4594 11.2932 15.8335 10.8332 15.8335H8.33319V3.33362C8.33319 2.62195 7.87986 1.98613 7.19826 1.74946L6.95153 1.66692H10.8332C11.2932 1.66692 11.6666 2.04106 11.6666 2.50034V5.00032C11.6666 5.46021 12.0391 5.83359 12.4999 5.83359C12.9607 5.83359 13.3331 5.46021 13.3331 5.00032V2.50034C13.3331 1.12203 12.2115 0.000366211 10.8332 0.000366211H1.87498C1.84324 0.000366211 1.81669 0.0145568 1.78587 0.0186766C1.74574 0.0153197 1.70744 0.000366211 1.6667 0.000366211C0.74752 0.000366211 0 0.747735 0 1.66692V16.6668C0 17.3784 0.453334 18.0143 1.13494 18.2509L6.14999 19.9227C6.31997 19.9752 6.48904 20.0002 6.66665 20.0002C7.58583 20.0002 8.33319 19.2527 8.33319 18.3335V17.5002H10.8332C12.2115 17.5002 13.3331 16.3785 13.3331 15.0002V11.6668C13.3331 11.2069 12.9607 10.8335 12.4999 10.8335Z" fill="#777777"/>
<path d="M19.7565 7.74433L16.4231 4.41108C16.1849 4.17274 15.8265 4.10102 15.5149 4.23011C15.2041 4.35935 15.0007 4.66346 15.0007 5.00021V7.50019H11.6675C11.2074 7.50019 10.834 7.87341 10.834 8.33346C10.834 8.79351 11.2074 9.16674 11.6675 9.16674H15.0007V11.6667C15.0007 12.0035 15.2041 12.3076 15.5149 12.4368C15.8265 12.5659 16.1849 12.4942 16.4231 12.256L19.7565 8.9226C20.0823 8.59683 20.0823 8.0701 19.7565 7.74433Z" fill="#777777"/>
</g>
<defs>
<clipPath id="clip0">
<rect width="20" height="20" fill="white"/>
</clipPath>
</defs>
</svg>
