<svg width="26" height="26" viewBox="0 0 26 26" fill="none" xmlns="http://www.w3.org/2000/svg">
<path d="M20.5833 15.1667V6.50004C20.5833 5.30837 19.6083 4.33337 18.4166 4.33337H3.24998C2.05831 4.33337 1.08331 5.30837 1.08331 6.50004V15.1667C1.08331 16.3584 2.05831 17.3334 3.24998 17.3334H18.4166C19.6083 17.3334 20.5833 16.3584 20.5833 15.1667ZM18.4166 15.1667H3.24998V6.50004H18.4166V15.1667ZM10.8333 7.58337C9.03498 7.58337 7.58331 9.03504 7.58331 10.8334C7.58331 12.6317 9.03498 14.0834 10.8333 14.0834C12.6316 14.0834 14.0833 12.6317 14.0833 10.8334C14.0833 9.03504 12.6316 7.58337 10.8333 7.58337ZM24.9166 7.58337V19.5C24.9166 20.6917 23.9416 21.6667 22.75 21.6667H4.33331C4.33331 20.5834 4.33331 20.6917 4.33331 19.5H22.75V7.58337C23.9416 7.58337 23.8333 7.58337 24.9166 7.58337Z" fill="black"/>
</svg>
