<svg width="18" height="18" viewBox="0 0 18 18" fill="none" xmlns="http://www.w3.org/2000/svg">
<path d="M9.00002 0.666626C4.40002 0.666626 0.666687 4.39996 0.666687 8.99996C0.666687 13.6 4.40002 17.3333 9.00002 17.3333C13.6 17.3333 17.3334 13.6 17.3334 8.99996C17.3334 4.39996 13.6 0.666626 9.00002 0.666626ZM9.83335 14.8333H8.16669V13.1666H9.83335V14.8333ZM11.5584 8.37496L10.8084 9.14163C10.2084 9.74996 9.83335 10.25 9.83335 11.5H8.16669V11.0833C8.16669 10.1666 8.54169 9.33329 9.14169 8.72496L10.175 7.67496C10.4834 7.37496 10.6667 6.95829 10.6667 6.49996C10.6667 5.58329 9.91669 4.83329 9.00002 4.83329C8.08335 4.83329 7.33335 5.58329 7.33335 6.49996H5.66669C5.66669 4.65829 7.15835 3.16663 9.00002 3.16663C10.8417 3.16663 12.3334 4.65829 12.3334 6.49996C12.3334 7.23329 12.0334 7.89996 11.5584 8.37496Z" fill="#777777"/>
</svg>
