<svg width="26" height="26" viewBox="0 0 26 26" fill="none" xmlns="http://www.w3.org/2000/svg">
<path d="M16.25 4.33329V11.9166H5.60085L4.96169 12.5558L4.33335 13.1841V4.33329H16.25ZM17.3334 2.16663H3.25002C2.65419 2.16663 2.16669 2.65413 2.16669 3.24996V18.4166L6.50002 14.0833H17.3334C17.9292 14.0833 18.4167 13.5958 18.4167 13V3.24996C18.4167 2.65413 17.9292 2.16663 17.3334 2.16663ZM22.75 6.49996H20.5834V16.25H6.50002V18.4166C6.50002 19.0125 6.98752 19.5 7.58335 19.5H19.5L23.8334 23.8333V7.58329C23.8334 6.98746 23.3459 6.49996 22.75 6.49996Z" fill="black"/>
</svg>
