<svg width="26" height="26" viewBox="0 0 26 26" fill="none" xmlns="http://www.w3.org/2000/svg">
<path d="M17.7263 14.65C18.5885 14.65 19.3472 14.1785 19.738 13.4655L23.8535 6.002C24.2789 5.243 23.7271 4.3 22.8534 4.3H5.8397L4.7591 2H1V4.3H3.29915L7.43761 13.0285L5.88569 15.8345C5.0465 17.3755 6.15009 19.25 7.89744 19.25H21.6923V16.95H7.89744L9.16197 14.65H17.7263ZM6.9318 6.6H20.8991L17.7263 12.35H9.65629L6.9318 6.6ZM7.89744 20.4C6.63291 20.4 5.60979 21.435 5.60979 22.7C5.60979 23.965 6.63291 25 7.89744 25C9.16197 25 10.1966 23.965 10.1966 22.7C10.1966 21.435 9.16197 20.4 7.89744 20.4ZM19.3932 20.4C18.1286 20.4 17.1055 21.435 17.1055 22.7C17.1055 23.965 18.1286 25 19.3932 25C20.6577 25 21.6923 23.965 21.6923 22.7C21.6923 21.435 20.6577 20.4 19.3932 20.4Z" fill="black"/>
</svg>
